<?xml version="1.0" encoding="UTF-8" standalone="no"?>
<!-- Created with Inkscape (http://www.inkscape.org/) -->

<svg
   xmlns:dc="http://purl.org/dc/elements/1.1/"
   xmlns:cc="http://creativecommons.org/ns#"
   xmlns:rdf="http://www.w3.org/1999/02/22-rdf-syntax-ns#"
   xmlns:svg="http://www.w3.org/2000/svg"
   xmlns="http://www.w3.org/2000/svg"
   xmlns:sodipodi="http://sodipodi.sourceforge.net/DTD/sodipodi-0.dtd"
   xmlns:inkscape="http://www.inkscape.org/namespaces/inkscape"
   width="1000mm"
   height="1000mm"
   viewBox="0 0 3543.3071 3543.307"
   id="svg2"
   version="1.1"
   inkscape:version="0.91 r13725"
   sodipodi:docname="icons.svg">
  <defs
     id="defs4" />
  <sodipodi:namedview
     id="base"
     pagecolor="#ffffff"
     bordercolor="#666666"
     borderopacity="1.0"
     inkscape:pageopacity="0.0"
     inkscape:pageshadow="2"
     inkscape:zoom="0.45254834"
     inkscape:cx="843.04012"
     inkscape:cy="988.71197"
     inkscape:document-units="px"
     inkscape:current-layer="layer1"
     showgrid="false"
     inkscape:window-width="1536"
     inkscape:window-height="801"
     inkscape:window-x="-8"
     inkscape:window-y="-8"
     inkscape:window-maximized="1" />
  <metadata
     id="metadata7">
    <rdf:RDF>
      <cc:Work
         rdf:about="">
        <dc:format>image/svg+xml</dc:format>
        <dc:type
           rdf:resource="http://purl.org/dc/dcmitype/StillImage" />
        <dc:title></dc:title>
      </cc:Work>
    </rdf:RDF>
  </metadata>
  <g
     inkscape:label="Layer 1"
     inkscape:groupmode="layer"
     id="layer1"
     transform="translate(0,2490.9448)">
    <path
       style="fill:#000000"
       d="m 0,-264.67347 0,-24.04986 193.1276,0 193.1277,0 0,24.04986 0,24.04985 -193.1277,0 -193.1276,0 0,-24.04985 z m 18.948398,-125.72707 0,-91.47418 33.5241,-33.50028 33.5241,-33.50027 0,41.89318 0,41.89316 -18.2197,0 -18.2196,0 0,83.0813 0,83.08132 -15.3044,0 -15.3045,0 0,-91.47423 z m 70.6919,70.33952 0,-21.1347 18.460702,0 18.4607,0 8.3181,9.47417 8.3177,9.47418 14.7622,-0.0862 14.7619,-0.0862 7.8144,-9.38824 7.8143,-9.38825 53.0392,0 53.0391,0 0,21.13474 0,21.13472 -102.394,0 -102.394302,0 0,-21.13472 z m 247.057802,-61.94661 0,-83.0813 -53.9301,0 -53.9299,0 0,-47.37093 0,-47.37093 11.79,0 11.7901,0 -3.9943,-4.73708 c -5.8968,-6.99317 -8.0707,-13.34002 -9.3913,-27.41787 -1.3177,-14.04836 -4.3486,-21.42467 -11.8996,-28.95904 -13.4535,-13.42409 -34.2812,-14.79893 -50.1315,-3.30916 -6.6217,4.79989 -13.1942,15.95341 -14.6067,24.78733 l -0.9774,6.11178 7.4742,0 c 7.7794,0 13.3042,3.32899 13.3042,8.01662 0,1.82195 2.9151,2.18635 17.4909,2.18635 l 17.4908,0 0,30.60889 0,30.60894 -5.7211,0 -5.7214,0 5.7214,13.19096 5.7211,13.19103 0,24.71654 0,24.71662 -14.6819,21.12388 -14.6822,21.12388 -6.4527,0 -6.4526,0 0,10.20297 0,10.20297 -5.1016,0 -5.1015,0 0,16.03324 0,16.03323 -7.2878,0 -7.2877,0 0,-16.03323 0,-16.03324 -5.1016,0 -5.1015,0 0,-10.20297 0,-10.20297 -6.3106,0 -6.3109,0 -14.824,-21.4175 -14.823902,-21.41744 0,-15.02173 0,-15.02169 5.830402,0 c 3.2066,0 5.8302,-0.21459 5.8302,-0.47761 0,-0.26233 -2.6236,-6.52647 -5.8302,-13.91975 l -5.830402,-13.44235 0,-39.28138 0,-39.28142 17.392502,0 c 16.0953,0 17.4614,-0.21658 18.3152,-2.90651 1.6842,-5.30622 5.0373,-7.29647 12.2932,-7.29647 l 6.9806,0 0.8498,-7.17419 c 1.786,-15.0811 12.565,-29.46055 27.25,-36.35238 6.5459,-3.07201 10.156,-3.7585 19.6773,-3.74179 14.3475,0.0233 23.162,3.57291 33.0793,13.31388 8.6532,8.4997 12.7125,17.92117 14.2839,33.15319 1.4811,14.35389 3.8344,20.36896 10.4012,26.58371 6.4235,6.07917 11.1783,7.74162 22.1423,7.74162 l 9.025,0 38.9799,38.99988 38.9797,38.9998 0,91.45243 0,91.45236 -15.3044,0 -15.3044,0 0,-83.0813 z m -182.6887,-99.47894 c -1.0941,-2.60538 -5.4423,-12.7719 -9.6626,-22.59229 l -7.6737,-17.85517 -11.4913,0 c -6.3203,0 -11.4915,0.3673 -11.4915,0.81642 0,0.9313 15.6722,37.93396 17.7115,41.81741 1.1049,2.10418 3.3751,2.55072 12.9683,2.55072 l 11.6287,0 -1.9894,-4.73709 z m 43.3158,-7.28782 c -2.8414,-6.61371 -7.1708,-16.78025 -9.6211,-22.59229 l -4.4549,-10.56735 -11.9957,0 -11.9957,0 9.647,22.55555 9.6473,22.55554 11.9695,0.0389 11.9696,0.0389 -5.166,-12.02491 z m -73.3738,132.34417 c -2.1146,-2.54778 -0.8116,-7.48558 2.2893,-8.6755 3.1291,-1.20074 7.8555,1.63998 7.8555,4.72137 0,5.48276 -6.7069,8.09681 -10.1448,3.95413 z m 58.536,0.3673 c -2.6233,-2.62344 -2.1084,-6.70142 1.0604,-8.3974 3.56,-1.9052 7.0213,-0.6102 8.1871,3.06325 1.7284,5.44527 -5.162,9.41971 -9.2475,5.33415 z m -72.5726,-14.8302 c -1.7469,-4.5521 0.022,-7.47058 4.5241,-7.47058 3.8648,0 4.3529,0.49034 4.3529,4.37269 0,3.68891 -0.6282,4.44495 -4.0167,4.8347 -2.5633,0.29492 -4.3218,-0.33377 -4.8603,-1.73681 z m 85.9964,0 c -1.7467,-4.5521 0.022,-7.47058 4.5241,-7.47058 3.8648,0 4.3529,0.49034 4.3529,4.37269 0,3.68891 -0.6282,4.44495 -4.0167,4.8347 -2.5631,0.29492 -4.3218,-0.33377 -4.8603,-1.73681 z"
       id="path4206"
       inkscape:connector-curvature="0"
       inkscape:export-xdpi="263.51492"
       inkscape:export-ydpi="263.51492" />
    <rect
       style="fill:#00f900;fill-opacity:1;stroke:#00fc00;stroke-width:3.9000001;stroke-miterlimit:4;stroke-dasharray:none;stroke-opacity:1"
       id="rect4213"
       width="40.356651"
       height="0"
       x="523.92859"
       y="555.57617" />
    <path
       style="fill:#000000"
       d="m 1473.108,653.81547 0,10.22314 0,10.1972 83.9387,0 c 81.9967,0 84.0189,0.0801 86.8709,2.93198 1.6191,1.61862 2.906,4.86958 2.906,7.29116 l 0,4.35904 -86.4816,0.38931 -86.5074,0.36307 0,18.99322 0,18.96741 72.2624,0 72.2627,0 0.4411,-9.13335 0.4411,-9.10747 7.9398,0 7.9658,0 0.1298,29.55369 0.1037,29.5537 13.3886,12.06533 13.3886,12.03945 11.4168,0 11.4427,0 13.0253,-11.93572 13.0254,-11.96157 0,-29.65745 0,-29.65743 8.7443,0 8.77,0 0,9.49655 0,9.49673 72.2627,-0.10367 72.2625,-0.1034 0,-19.25275 0,-19.2527 -34.6654,-0.33756 c -19.0686,-0.18463 -57.8407,-0.34954 -86.1441,-0.36307 l -51.4531,-0.0227 0,-4.61865 c 0,-2.54634 1.0842,-5.84882 2.4131,-7.31707 2.2872,-2.52773 6.895,-2.6725 86.1442,-2.6725 l 83.7053,0 0,-10.19718 0,-10.22317 -85.1323,0 -85.1583,0 -7.862,4.02171 c -9.6293,4.91108 -14.5562,13.00864 -14.5562,23.94921 l 0,7.05765 -6.5646,0 c -6.4633,0 -6.5646,-0.0781 -6.5646,-4.85217 0,-13.09919 -8.6595,-25.48759 -20.0311,-28.64558 -3.5534,-0.98682 -35.5026,-1.52562 -89.8287,-1.53082 l -84.3021,0 z m 186.8707,151.81612 -0.053,31.03274 -0.053,31.00666 -2.9839,-3.58064 c -17.4893,-21.01542 -18.4672,-20.6546 -7.6285,2.69855 3.5096,7.5616 6.0936,14.01531 5.7602,14.34875 -0.333,0.33304 -7.5867,-1.40238 -16.1131,-3.8662 -8.5263,-2.46367 -16.6189,-4.47314 -18.0072,-4.46294 -1.3886,0.009 3.0608,3.57469 9.8858,7.91401 6.825,4.33924 13.9657,9.12353 15.8797,10.63827 l 3.4768,2.75036 -18.8115,5.76017 -18.8117,5.76037 19.9533,0.72613 19.9273,0.72686 -11.6242,13.67415 c -6.3893,7.5195 -11.343,13.95538 -11.0016,14.29683 0.3413,0.34134 7.4484,-3.60755 15.7757,-8.79608 8.3277,-5.1887 15.2152,-9.32343 15.3348,-9.18533 0.1824,0.21673 -0.5821,5.85976 -4.437,32.71927 l 0.023,0 c -0.3736,2.60957 -0.3811,4.74844 0,4.74844 0.381,0 4.3592,-7.71674 8.8478,-17.15112 l 8.1734,-17.15101 8.4847,17.51424 c 4.6729,9.63511 8.536,16.21409 8.5625,14.6082 0.03,-1.60587 -0.9259,-9.15982 -2.1016,-16.78772 -3.2015,-20.7733 -4.0457,-20.0347 11.728,-10.1972 7.6499,4.77101 15.3667,9.45366 17.1511,10.40484 3.782,2.01517 4.7599,3.36412 -11.7022,-16.16507 l -10.5604,-12.50648 19.3304,-0.75246 c 10.6247,-0.40206 18.3301,-1.16511 17.1252,-1.71249 -1.2044,-0.54758 -9.2462,-3.11809 -17.8776,-5.70839 -8.6316,-2.59027 -15.698,-5.11306 -15.698,-5.60462 0,-0.49208 6.8965,-5.44673 15.3089,-11.00142 8.4124,-5.55469 15.114,-10.26208 14.8936,-10.48262 -0.2213,-0.2207 -8.5401,1.86603 -18.4745,4.64454 -9.9345,2.77851 -18.2084,4.89426 -18.3704,4.69637 -0.1619,-0.19741 3.1962,-8.07978 7.4468,-17.5143 4.2508,-9.43441 7.2843,-17.13829 6.7462,-17.12502 -0.5386,0.0142 -4.9126,4.66541 -9.7301,10.35292 l -8.7702,10.35277 -0.3893,-30.79914 -0.3893,-30.8251 -3.6326,0 -3.6066,0 0,38.84279 0,38.84276 3.7882,4.51478 c 3.0704,3.64146 3.6289,5.51288 2.958,9.70419 -0.4569,2.85466 -2.2247,6.32703 -3.9439,7.7322 -6.5481,5.35182 -17.5903,1.60919 -19.6679,-6.66834 -1.0332,-4.11744 1.4927,-11.01267 4.4369,-12.14322 1.9009,-0.72987 2.2055,-6.46414 2.2055,-40.84069 l 0,-39.98447 -4.385,0 -4.3851,0 z m -186.8707,163.51842 0,41.59299 0,41.6192 199.9999,0 200,0 0,-41.6192 0,-41.59299 -53.9958,0 c -29.7085,0 -54.0218,0.48836 -54.0218,1.08979 0.01,0.60237 2.426,3.71603 5.371,6.92782 2.945,3.21179 7.0412,7.77434 9.1073,10.11932 l 3.7624,4.2553 -4.3851,-2.80214 c -2.4122,-1.54227 -5.6887,-3.58962 -7.291,-4.54077 -1.6023,-0.95112 -7.7016,-4.71506 -13.5444,-8.38089 l -10.6124,-6.66843 -20.8873,0 -20.8615,0 0.4411,3.99584 c 0.2565,2.20809 1.7862,13.87713 3.3989,25.9211 4.9658,37.08325 5.1987,35.45185 -2.5946,19.71975 -3.7794,-7.6295 -10.6982,-21.92478 -15.3607,-31.75915 l -8.4588,-17.87754 -9.5224,0 -9.4967,0 -7.2392,15.69802 c -15.1444,32.79037 -22.4906,48.20917 -22.8335,47.89837 -0.1957,-0.177 1.2502,-13.0761 3.2435,-28.6717 1.9933,-15.59541 3.6452,-29.84875 3.6585,-31.65538 0.014,-3.24485 -0.2094,-3.26931 -20.1868,-3.26931 l -20.1868,0 -17.2289,11.00151 c -9.468,6.05367 -17.4215,10.80883 -17.6698,10.56047 -0.2483,-0.24826 3.4158,-4.70844 8.1473,-9.91177 4.7314,-5.20331 8.6264,-9.95856 8.6663,-10.56042 0.037,-0.6016 -24.5605,-1.08979 -54.6704,-1.08979 l -54.7484,0 z"
       id="path4204-1"
       inkscape:export-xdpi="1195.6409"
       inkscape:export-ydpi="1195.6409"
       inkscape:connector-curvature="0" />
    <path
       id="path4318-5"
       style="fill:#000000"
       d="m 110.19457,873.4789 0,54.93261 c 0,30.20864 0.75477,55.67474 1.67715,56.59715 0.92239,0.92234 46.20252,1.67713 100.6241,1.67713 77.33548,0 98.99833,-0.68586 99.21246,-3.14358 0.23673,-2.71264 0.19548,-29.67908 -0.17281,-94.33697 -0.0796,-13.96066 -0.65658,-15.72634 -5.07776,-15.72634 -4.77499,0 -5.00628,2.08639 -5.6593,50.80298 l -0.67423,50.80721 -88.67767,0.99026 -88.67344,1.00713 0,-51.79747 0,-51.81011 -6.29139,0 -6.28716,0 z m 99.04811,-17.45826 c -90.64056,0.26328 -111.94256,0.96691 -114.25614,3.75459 -1.56417,1.88449 -2.10616,4.60278 -1.21361,6.04698 1.08961,1.76302 40.00818,2.62526 118.44897,2.62526 112.95057,0 116.82245,-0.1534 116.82245,-4.7575 0,-2.61917 -1.88866,-5.48825 -4.20129,-6.37566 -2.31263,-0.88769 -54.32867,-1.47165 -115.60038,-1.29367 z m 186.154,-17.2897 c -0.5147,0.18921 -0.81917,1.5297 -0.73742,3.51862 0.12082,2.93059 0.70972,3.51961 1.51279,1.51279 0.72696,-1.81601 0.6339,-3.9848 -0.20216,-4.82073 -0.20906,-0.20907 -0.40156,-0.27388 -0.5731,-0.21058 z m -314.13485,-4.23922 -0.004,0.17692 -6.09333,0 0,83.76425 c -0.12384,9.66401 -0.19374,20.67266 -0.19374,33.0287 l 0,75.47971 -7.04146,0 c -13.2516,0 -18.11911,13.7991 -7.49235,21.2423 4.0026,2.8036 11.70546,3.9063 27.11235,3.9063 23.7852,0 32.70841,-3.6753 32.70841,-13.4761 0,-7.5958 -4.58192,-11.6725 -13.08842,-11.6725 l -7.04145,0 0,-33.96839 c 0,-9.49381 0.20842,-17.2398 0.56888,-22.9996 l 0,-40.38195 c -0.34819,-1.94318 -0.56888,-4.3748 -0.56888,-7.04989 0,-2.67509 0.22069,-5.11092 0.56888,-7.0541 l 0,-14.15876 c -0.87682,-0.11025 -1.87235,-0.17282 -3.0846,-0.17282 l -7.54713,0 0,-27.677 0,-27.66437 120.75399,0 120.74138,0 0,27.66437 0,27.677 -7.54712,0 c -5.93382,0 -7.53449,1.10278 -7.53449,5.16206 0,4.64757 1.30889,5.088 13.198,4.40353 l 13.20641,-0.76271 0,-37.73564 0,-37.73142 -130.80421,0 -130.81681,0 z m 304.39228,-16.34999 c -11.09496,0 -11.3228,0.16203 -11.3228,8.175 0,8.01253 0.22829,8.17499 11.3228,8.17499 11.09491,0 11.32281,-0.16203 11.32281,-8.17499 0,-8.01312 -0.22823,-8.175 -11.32281,-8.175 z m 4.40356,-4.58053 11.95066,0 0,17.3782 0,17.39084 -16.35422,0 -16.35421,0 0,-16.18567 c 0,-18.24531 0.37765,-18.58208 20.75777,-18.58337 z M 226.2669,790.46471 c -146.80222,0 -193.782235,0.73015 -196.077756,3.02561 -2.144947,2.14501 -3.008734,17.44763 -3.008734,52.89731 0,57.5602 -1.739656,54.09523 26.21478,52.66973 l 16.54384,-0.84698 0,-11.10368 0,-11.1121 -10.06283,0 -10.06706,0 0,-31.17457 0,-31.16192 110.06327,-0.3961 c 60.53251,-0.21864 130.10909,0.38868 154.61705,1.34846 l 44.55798,1.74034 0.72901,21.65112 0.71636,21.63845 20.75775,0.74165 20.75777,0.72901 0,7.44601 0,7.43755 -26.51819,0 -26.51396,0 1.71929,28.93276 1.73191,28.93275 -18.11985,0 -18.10721,0 0.76273,11.95068 0.77114,11.94223 16.97366,0.75009 16.98208,0.73744 0,33.84621 0,33.85464 -7.04145,0 c -13.25159,0 -18.11912,13.7991 -7.49235,21.2423 l 0,-0.013 c 8.16222,5.7168 48.82988,5.538 55.21917,-0.2444 9.33093,-8.4444 4.25546,-20.998 -8.48682,-20.998 l -7.04145,0 0,-63.55849 0,-63.57117 21.58369,0.0548 c 29.52365,0.0667 28.72627,1.55816 28.72627,-53.9592 0,-35.96997 -0.735,-45.28802 -3.91895,-49.8338 l -3.90629,-5.59608 -193.06485,0 z"
       inkscape:connector-curvature="0"
       inkscape:export-xdpi="90"
       inkscape:export-ydpi="90"
       inkscape:export-filename="C:\Users\qbowers\Documents\GitHub\DesignLabManager\icons\completed\vinyl.png" />
    <path
       style="fill:#000000"
       d="m 60.2409,292.79941 -7.52999,3.5365 c -8.97708,4.21017 -16.78609,11.77121 -20.73794,20.13647 l -2.86287,6.11066 -0.3609,164.12261 -0.3609,164.12263 -14.19421,0 -14.19409,0 0,20.9785 0,20.97833 184.09059,0 184.09057,0 0,-20.97833 0,-21.00253 -14.21809,0 -14.21824,0 0,-29.08596 0,-29.10996 -3.03123,0 c -1.67506,0 -23.76609,-1.48872 -49.07806,-3.29597 -25.31208,-1.80721 -62.16441,-4.39318 -81.89292,-5.74984 l -35.87015,-2.45393 110.66604,-0.3609 110.64198,-0.33751 0,-26.3193 0,-26.31915 -22.32567,-0.0493 -22.32569,-0.074 0,8.80512 0,8.7811 -72.39001,0 -72.38999,0 -0.3609,-19.29432 -0.38433,-19.27041 -14.555,-0.38433 -14.55497,-0.38553 0,19.65534 0,19.67925 -12.84689,0 -12.87093,0 0,-80.54564 0,-80.52159 96.78468,0 96.78468,0 0,-28.86943 c 0,-35.60825 -0.93491,-39.69191 -11.45157,-50.20869 -13.12689,-13.12674 -3.34411,-12.2936 -144.87634,-12.2936 l -123.17618,0 z m 301.1561,49.3908 0,6.7843 0,6.76026 -5.41299,0 -5.41296,0 0,6.7603 0,6.7843 5.41296,0 5.41299,0 0,6.54373 c 0,3.59821 0.41757,6.93738 0.91398,7.43379 0.49638,0.49642 2.93159,0.91398 5.41308,0.91398 l 4.49876,0 0,-20.97839 0,-21.00253 -5.41297,0 -5.4131,0 z M 219.2873,394.9972 c -6.31707,0 -6.7843,0.20931 -6.7843,3.3681 0,3.19926 -0.39539,3.39217 -7.43379,3.39217 l -7.45794,0 0,4.73932 0,4.73944 21.00251,0 20.97838,0 0,-4.73944 0,-4.73932 -6.78429,0 c -6.31711,0 -6.76027,-0.23397 -6.76027,-3.39217 0,-3.15848 -0.44346,-3.3681 -6.7603,-3.3681 z m 62.26173,2.69446 0,41.8847 0,41.86069 -3.05538,0.43233 c -2.38531,0.33874 -3.03123,1.31823 -3.03123,4.4989 l 0,4.04166 9.11798,0.40893 9.14189,0.40893 0,22.71063 c 0,12.49792 0.42989,23.16486 0.962,23.697 0.53214,0.52717 3.11747,0.77476 5.74975,0.55304 l 4.78761,-0.3843 0.3843,-23.36024 0.36091,-23.36009 8.7811,0 8.7571,0 0,-4.71533 c 0,-3.83473 -0.52721,-4.73944 -2.7185,-4.73944 -2.2763,0 -2.70568,-0.91274 -2.74264,-5.74987 -0.0258,-3.16401 -0.001,-22.06637 0.0493,-41.98089 l 0.074,-36.20702 -18.30806,0 -18.30803,0 z m -215.2215,56.84862 20.978501,0 20.978499,0 0,36.5439 0,36.56793 -20.978499,0 -20.978501,0 0,-36.56793 0,-36.5439 z m 20.906331,20.66577 c -3.47569,0.11096 -7.07599,1.50842 -10.27266,4.57093 -7.285981,6.98053 -6.250211,18.54653 2.11703,23.64886 8.172,4.98333 17.55187,2.58015 21.772359,-5.58136 6.11175,-11.81913 -3.189639,-22.97175 -13.616729,-22.63843 z"
       id="path4204-2"
       inkscape:connector-curvature="0" />
    <path
       style="fill:#000000"
       d="m 2718.4687,786.16247 c -17.9012,-0.0801 -35.9069,1.10455 -38.4224,3.62001 -2.5398,2.5398 -3.4325,29.6515 -3.4325,104.2596 0,93.0091 0.3881,101.0562 5.0057,103.7457 3.0948,1.8024 38.4487,2.94382 92.6127,2.99872 71.5905,0.071 88.2084,-0.6404 90.9187,-3.90602 2.5592,-3.0837 0.2688,-20.552 -10.0469,-76.5143 -16.4388,-89.178 -13.9766,-85.3902 -55.5534,-85.3902 -32.1757,0 -31.346,0.5732 -36.8671,-25.5509 -1.8059,-8.5453 -4.688,-17.2337 -6.409,-19.3073 -2.1048,-2.53612 -19.9044,-3.8759 -37.8058,-3.95531 z M 2608.35,835.26658 c -9.8282,0 -22.0972,0.098 -37.5151,0.2815 -64.1613,0.7631 -72.421,1.3951 -75.6161,5.7699 -1.973,2.7008 -9.8616,49.2258 -17.5285,103.3879 -11.7342,82.89832 -13.3388,99.20232 -10.132,103.06632 3.1846,3.8374 10.7963,4.59 46.369,4.59 49.262,0 51.8445,-1.1537 55.2673,-24.6481 3.767,-25.8553 5.3679,-26.8381 43.6203,-26.8381 26.9886,0 34.3104,-0.89842 38.5476,-4.73282 4.8102,-4.3532 5.2289,-10.6755 5.2289,-78.597 l 0,-73.8594 -6.8648,-4.4963 c -4.4084,-2.8889 -11.8926,-3.9058 -41.3766,-3.9239 z m -34.5074,52.8134 c 4.0962,-0.055 8.3828,0.8263 12.6882,2.8693 10.6288,5.0438 18.5744,16.5859 18.5744,26.9767 0,9.6904 -8.0291,22.4498 -17.0682,27.1241 -14.0787,7.2804 -26.6546,4.3209 -36.8806,-8.6792 -15.9994,-20.3405 0.5663,-47.9982 22.6862,-48.2909 z m 183.1426,0.037 c 4.1127,-0.043 8.417,0.8483 12.7418,2.9004 21.7805,10.3355 24.1953,38.5577 4.4335,51.8393 -14.8165,9.9577 -28.792,7.6902 -39.942,-6.4847 -16.0525,-20.4078 0.5574,-48.0152 22.7667,-48.255 z"
       id="path4189"
       inkscape:connector-curvature="0" />
    <path
       style="fill:#000000"
       d="m 1194.9324,1012.352 c -28.2068,-22.00554 -57.7003,-45.01794 -65.5411,-51.13874 l -14.2558,-11.1288 -14.3562,0 -14.3562,0 -17.4319,27.8222 c -9.5876,15.3021 -17.6971,28.17894 -18.0211,28.61494 -0.5546,0.7462 -2.5879,0.7858 -34.6766,0.6758 l -34.08744,-0.1169 30.94284,-45.05614 30.9427,-45.0562 86.7238,-0.2253 86.7239,-0.2253 2.8527,-0.9779 c 6.1433,-2.106 8.6366,-5.3379 8.6366,-11.1949 0,-5.8631 -2.9781,-9.701 -9.1685,-11.8154 -2.1735,-0.7423 -7.7411,-0.8069 -87.7022,-1.0179 l -85.3814,-0.2253 -20.7259,-16.1729 c -11.3992,-8.895 -20.8148,-16.2494 -20.9236,-16.3429 -0.1088,-0.094 51.8973,-0.1085 115.569,-0.033 l 115.7669,0.1367 4.182,0.9675 c 11.0513,2.5567 18.6353,6.3118 25.2562,12.5051 7.8997,7.3896 12.6296,17.1174 13.5363,27.8396 2.0506,24.2512 -12.7295,43.0303 -38.4689,48.8775 -2.6411,0.5999 -8.056,0.7595 -33.302,0.9813 l -30.1482,0.2649 64.3908,50.19194 c 35.415,27.6056 64.7907,50.5674 65.2794,51.0261 0.8654,0.8124 0.08,0.8342 -30.0411,0.8342 l -30.9298,0 -51.2852,-40.0099 z m 121.5051,-88.85064 0,-38.2978 -10.8135,0 -10.8134,0 0.01,-4.6182 c 0.012,-8.0192 1.464,-11.8114 6.172,-16.1214 2.9346,-2.6865 6.8414,-4.7007 10.4425,-5.3836 1.3816,-0.2621 9.7652,-0.4599 19.4849,-0.4599 l 17.0598,0 0,51.5893 0,51.5893 -15.7697,0 -15.7696,0 0,-38.2977 z m 50.9135,34.6932 0,-3.1539 -3.154,0 -3.1539,0 0,-2.7034 0,-2.7034 3.1539,0 3.154,0 0,-3.3792 0,-3.3792 2.4781,0 2.478,0 0,3.3792 0,3.3792 3.3793,0 3.3792,0 0,2.7034 0,2.7034 -3.3792,0 -3.3793,0 0,3.1539 0,3.1539 -2.478,0 -2.4781,0 0,-3.1539 z m -8.9382,-24.2177 c 0.1414,-6.5913 0.2324,-7.2375 1.2786,-9.0791 1.5448,-2.7192 3.5534,-3.7516 6.8771,-3.5349 4.7968,0.3127 7.0903,3.3674 7.0903,9.4429 l 0,3.509 4.0551,0 4.055,0 0,3.3792 0,3.3792 -11.7541,0 -11.7542,0 0.1522,-7.0963 z m 10.7404,-1.435 c 0,-1.9896 -0.6861,-4.1188 -1.4925,-4.6315 -0.9709,-0.6174 -2.5483,-0.3682 -3.4637,0.5471 -0.6826,0.6827 -0.9011,1.5019 -0.9011,3.3792 l 0,2.4781 2.9287,0 2.9286,0 0,-1.7729 z m -10.8135,-16.9254 0,-3.3792 9.0113,0 9.0112,0 0,-5.1814 0,-5.1815 2.7034,0 2.7033,0 0,8.5607 0,8.5606 -11.7146,0 -11.7146,0 0,-3.3792 z m 0,-18.6983 0,-3.1539 7.6384,0 c 4.6384,0 8.0695,-0.1965 8.7363,-0.5003 2.2249,-1.0137 2.7612,-4.2845 0.9924,-6.0533 -1.0925,-1.0925 -1.2047,-1.106 -9.2365,-1.106 l -8.1306,0 0,-3.4278 0,-3.4278 8.4602,0.1613 c 8.0116,0.1527 8.5781,0.2219 10.6832,1.3053 6.487,3.3385 6.229,15.4874 -0.3928,18.4945 -1.5971,0.7252 -3.0272,0.8435 -10.3025,0.852 l -8.4481,0.01 0,-3.154 z m 18.3666,-20.7915 c -2.1269,-1.3501 -2.1318,-1.3589 -1.4644,-2.6495 1.8759,-3.6276 1.7416,-8.0983 -0.2432,-8.0983 -0.9926,0 -1.8506,1.5646 -2.4709,4.5056 -0.5808,2.754 -2.0634,5.3583 -3.586,6.2993 -1.7671,1.0921 -5.1148,1.2075 -6.9844,0.2406 -3.9978,-2.0672 -5.1615,-9.0045 -2.5565,-15.2393 l 0.6995,-1.6741 2.4473,1.2002 2.4472,1.2003 -0.5813,1.3958 c -0.3198,0.7677 -0.7186,2.3159 -0.8864,3.4405 -0.2499,1.6757 -0.1409,2.2449 0.6039,3.1539 0.8094,0.9878 0.9842,1.0352 1.5966,0.4334 0.3782,-0.3717 1.1854,-2.395 1.7936,-4.4963 0.8784,-3.0344 1.4307,-4.1181 2.6843,-5.2669 5.0269,-4.6068 12.0364,-0.3515 12.0004,7.2851 -0.016,3.3731 -1.8972,9.7161 -2.8637,9.6557 -0.2761,-0.017 -1.4623,-0.6409 -2.636,-1.386 z"
       id="path4187"
       inkscape:connector-curvature="0" />
    <path
       style="fill:#000000"
       d="m 2222.1057,1051.4782 c -5.7473,-1.7977 -11.2974,-7.582 -12.935,-13.4808 -0.4454,-1.6043 -0.7072,-9.9143 -0.7095,-22.517 l -0.01,-19.97422 70.3096,0 70.3096,0 0,20.67782 c 0,14.2082 -0.2355,21.3577 -0.7527,22.8507 -1.1352,3.2768 -4.4769,7.7126 -7.2878,9.6737 -5.4157,3.7786 -3.8687,3.6885 -62.5449,3.6418 -42.1478,-0.034 -54.3064,-0.2216 -56.3857,-0.872 z m -13.6383,-74.02879 c 0,-6.41575 0.2315,-11.95263 0.5026,-12.30418 0.271,-0.35155 2.948,-3.02691 5.9489,-5.94524 l 5.4563,-5.30606 14.9743,-0.12695 14.9743,-0.12695 0,-39.94863 0,-39.94862 -4.4742,-0.48733 c -2.4609,-0.26802 -7.2068,-0.92072 -10.5465,-1.45044 -5.7684,-0.91494 -15.2282,-2.23437 -41.227,-5.75019 -6.3278,-0.85572 -12.1618,-1.71299 -12.9643,-1.90503 -0.8026,-0.19206 -6.8429,-1.08031 -13.4228,-1.9739 -46.1516,-6.26764 -42.9181,-5.62746 -48.3601,-9.57429 -2.387,-1.73116 -5.3851,-3.88051 -6.6625,-4.77631 l -2.3226,-1.62872 -0.1649,-37.52092 -0.1649,-37.52093 112.5149,0 112.5148,0 -0.1742,11.58087 -0.1742,11.58087 -3.1959,1.23176 c -1.7577,0.67747 -4.4152,1.79394 -5.9054,2.48105 -1.4903,0.68711 -2.8802,1.24928 -3.0888,1.24928 -0.3867,0 -7.1032,2.80491 -12.5781,5.25281 l -3.0361,1.35749 0,73.31793 c 0,60.36125 0.1508,73.44308 0.8533,74.02607 0.5739,0.47631 5.6218,0.68915 15.4198,0.65017 l 14.5666,-0.058 5.6731,5.64676 5.673,5.64675 0,11.99791 0,11.99791 -70.3096,0 -70.3096,0 0.01,-11.66499 z m 75.4624,-158.94635 c 2.5413,-2.54129 2.6342,-6.7111 0.2136,-9.58779 l -1.6547,-1.96658 -21.1547,0 c -20.8403,0 -21.1767,0.0207 -22.634,1.38977 -1.2129,1.13949 -1.4793,2.05015 -1.4793,5.0566 0,3.30991 0.1914,3.82791 1.9665,5.32161 l 1.9666,1.65476 20.4538,0 20.4538,0 1.8684,-1.86837 z m -0.3223,-20.70027 c 1.3133,-1.12966 1.7875,-2.22326 2.0219,-4.66308 0.2665,-2.7735 0.082,-3.45325 -1.4172,-5.2356 l -1.7235,-2.04829 -21.0651,0 -21.0651,0 -1.5689,1.56889 c -1.2744,1.2743 -1.5671,2.20443 -1.5592,4.95363 0.011,3.74024 0.2305,4.24546 2.5294,5.8187 1.4027,0.95995 3.8593,1.08151 21.8562,1.08151 20.2584,0 20.2773,-0.002 21.9915,-1.47576 z m -51.1807,109.95024 -10.2268,-5.24724 -0.1731,-12.94336 c -0.1629,-12.19034 -0.1048,-12.94335 0.9995,-12.94335 1.0861,0 11.3468,1.38084 18.0293,2.4263 l 2.8763,0.45 0.1705,16.77842 c 0.1341,13.2143 0,16.77291 -0.6392,16.75245 -0.4453,-0.0143 -5.4117,-2.38723 -11.0365,-5.27322 z m -175.2952,-68.14354 c -3.3422,-3.47852 -8.0941,-8.52303 -13.1311,-13.93955 l -4.2858,-4.60873 0,-12.71301 0,-12.71301 3.6752,-3.24634 c 2.0214,-1.78548 6.264,-5.70215 9.4279,-8.7037 l 5.7526,-5.45735 22.531,-0.021 22.5311,-0.0211 0,31.9589 0,31.9589 -22.0524,0 -22.0523,0 -2.3962,-2.49399 z M 1956.7,820.3701 c -5.2696,-1.24414 -7.9371,-5.22523 -7.5938,-11.33299 0.1892,-3.36657 0.5164,-4.29478 2.1119,-5.99112 3.6369,-3.8669 2.4739,-3.76744 44.0532,-3.76744 l 38.0516,0 0,10.86603 0,10.86602 -37.2321,-0.0654 c -20.4777,-0.036 -38.2036,-0.29477 -39.3908,-0.57508 z"
       id="path4229"
       inkscape:connector-curvature="0" />
    <path
       style="fill:#000000"
       d="m 755.5729,1024.6135 c -0.98877,-15.2619 -2.21984,-28.05344 -2.73571,-28.42572 -0.51587,-0.37228 -22.12739,1.15778 -48.02561,3.40012 -37.80624,3.2734 -47.77712,3.322 -50.58552,0.24665 -1.95653,-2.1425 -5.81999,-30.67792 -8.76769,-64.75785 -2.8984,-33.51013 -5.83872,-61.49871 -6.53403,-62.19684 -0.69531,-0.69813 -1.26419,27.57956 -1.26419,62.83929 0,47.61211 -0.97987,64.90175 -3.80797,67.19085 -2.09439,1.6952 -16.80482,4.09 -32.68987,5.3216 -20.22476,1.5682 -29.89072,3.6191 -32.24753,6.8422 -2.86857,3.923 -4.25962,3.3046 -9.41859,-4.187 -16.21621,-23.54848 -20.713,-40.50035 -21.06744,-79.41949 -0.26329,-28.91057 -1.44737,-38.81255 -5.35423,-44.77518 -2.90761,-4.43757 -3.79825,-8.40838 -2.11879,-9.44635 3.27488,-2.02399 8.3073,5.50319 39.68211,59.35411 21.23996,36.45569 34.73748,54.83477 40.27048,54.83477 8.55581,0 3.12146,-14.2427 -22.94466,-60.13502 -41.16193,-72.47015 -38.96086,-63.91053 -22.07671,-85.85273 16.33615,-21.23005 42.90627,-40.5336 68.11617,-49.4873 24.08545,-8.55434 68.47922,-8.57182 92.50674,-0.0364 l 17.25988,6.13131 15.72473,-25.64176 15.72473,-25.64178 77.44652,0 c 62.57174,0 77.44649,0.78143 77.44649,4.06855 0,7.92093 -62.24258,101.40796 -74.02876,111.18963 -5.21805,4.3306 -27.89457,5.45272 -38.99489,1.92961 -5.6738,-1.80079 -6.3555,-1.25345 -4.42656,3.55411 17.42098,43.41874 16.25989,88.68667 -3.30019,128.66602 -8.33052,17.027 -40.58263,52.1833 -47.87251,52.1833 -3.02758,0 -4.59487,-7.3508 -5.9164,-27.7487 z m -63.43756,-45.98896 c 39.4359,-24.03445 51.47841,-35.71605 83.48405,-80.9821 17.42882,-24.64983 32.59218,-46.40776 33.69636,-48.35095 3.32443,-5.85048 -0.86701,-12.28561 -13.40738,-20.58443 -18.02567,-11.92882 -23.86962,-10.39751 -37.32014,9.77918 -6.37409,9.56158 -23.74213,34.13218 -38.59564,54.60135 -26.0548,35.90536 -31.51124,47.20613 -39.76337,82.3536 -2.75733,11.74402 -2.32844,11.85869 11.90612,3.18335 z M 847.2396,853.88173 c 1.75737,-9.28205 -17.67682,-26.78647 -43.75209,-39.40763 -28.46738,-13.77901 -46.80491,-18.24992 -47.37964,-11.55175 -1.08816,12.68189 1.71284,17.02119 7.75191,12.00921 3.52544,-2.92586 8.28508,-2.94041 22.12311,-0.0676 13.77254,2.85916 20.22205,6.251 29.46899,15.49794 10.12208,10.12209 11.56808,13.18583 9.97731,21.13969 -1.83118,9.1559 -1.68201,9.28717 9.49833,8.35887 7.65021,-0.6352 11.66997,-2.58718 12.31208,-5.97869 z"
       id="path4253"
       inkscape:connector-curvature="0" />
    <path
       style="fill:#000000"
       d="m 10.384451,210.30645 c -3.0579799,-1.7816 -7.1197109,-6.15371 -9.0260909,-9.71581 -4.80873,-8.98523 3.87596,-22.0451 14.6597909,-22.0451 l 7.92504,0 0,-156.776685 0,-156.776675 20.7969,0 20.79691,0 0,89.503355 0,89.50331 48.792739,0.88322 48.79274,0.88322 1.01241,8.79869 c 0.57944,5.03606 2.97386,8.7987 5.59916,8.7987 3.30314,0 4.58676,4.02927 4.58676,14.39785 l 0,14.39786 -19.19714,0 -19.19714,0 0.0499,15.197745 c 0.0276,8.35874 1.99817,23.47649 4.37925,33.595 4.0894,17.3779 3.99797,18.39726 -1.64972,18.39726 -7.28227,0 -7.51238,2.78602 -0.99831,12.08617 4.64651,6.63384 7.40306,7.11098 41.08025,7.11098 35.57912,0 36.15304,-0.11749 39.81263,-8.14934 4.87758,-10.70517 4.79427,-11.04781 -2.68597,-11.04781 -4.26604,0 -6.39904,-2.13303 -6.39904,-6.39904 0,-5.18019 2.133,-6.39905 11.19833,-6.39905 20.8687,0 31.50983,-21.28229 17.59738,-35.19476 -3.51947,-3.51948 -9.99851,-6.39905 -14.39786,-6.39905 -5.8658,0 -7.99881,-1.70642 -7.99881,-6.399055 0,-5.62341 -2.133,-6.39905 -17.59738,-6.39905 l -17.59738,0 0,-14.39786 c 0,-10.66508 1.24426,-14.39785 4.79929,-14.39785 3.19952,0 4.79928,-3.19953 4.79928,-9.59858 l 0,-9.59857 47.99286,0 47.99286,0 0,-89.58669 0,-89.586655 19.19715,0 19.19714,0 0,156.776675 0,156.776685 11.12459,0 c 20.43797,0 27.43886,23.3181 9.46028,31.50968 -10.59918,4.82931 -326.634029,5.06638 -334.898859,0.2511 z M 217.12236,137.70262 c -4.83886,-3.16702 -1.71874,-22.26685 3.99569,-24.45968 4.59398,-1.76288 17.19324,8.40965 17.19324,13.88167 0,4.24725 -9.36324,13.03563 -13.82652,12.97765 -2.07396,-0.0256 -5.38705,-1.10678 -7.36241,-2.39964 z M 78.335101,-67.437965 l 0,-98.805355 14.86695,-3.7436 c 8.176839,-2.0589 24.014479,-4.5977 35.194769,-5.6418 14.03859,-1.3109 20.3278,-3.2399 20.3278,-6.2348 0,-3.309 6.44433,-4.3366 27.19596,-4.3366 20.17806,0 27.19595,1.073 27.19595,4.1583 0,2.7887 9.2209,5.4806 27.99583,8.173 15.3977,2.2081 31.23534,4.8123 35.19477,5.7871 l 7.19893,1.7724 0,98.838355 0,98.8384 -97.58548,0 -97.585479,0 0,-98.8054 z m 134.538879,55.52966 c 12.65342,-6.54334 11.91907,-10.12068 -1.74996,-8.52492 -16.0942,1.87892 -23.46063,-0.75565 -42.72363,-15.27994 -12.57863,-9.4842 -20.21567,-12.9345 -28.79572,-13.0092 -11.16708,-0.097 -11.39755,-0.3179 -5.27791,-5.0505 10.02242,-7.7507 31.5134,-3.9907 46.63168,8.1587 32.47801,26.10008 56.6527,22.92838 32.08752,-4.2098 -12.21663,-13.4963 -30.9588,-21.0416 -52.46856,-21.1231 -15.47541,-0.059 -19.84178,1.2288 -26.39607,7.7831 -9.2422,9.2422 -9.88384,16.5725 -2.40103,27.4294 16.90393,24.52606 56.9739,36.29908 81.09368,23.82626 z M 199.91701,-173.40202 c 0,-1.8486 -10.13182,-3.1996 -23.99643,-3.1996 -13.86462,0 -23.99643,1.351 -23.99643,3.1996 0,1.8486 10.13181,3.1995 23.99643,3.1995 13.86461,0 23.99643,-1.3509 23.99643,-3.1995 z"
       id="path4318"
       inkscape:connector-curvature="0" />
  </g>
</svg>
